<?xml version="1.0" encoding="UTF-8"?>
<svg xmlns="http://www.w3.org/2000/svg" viewBox="0 0 2032.58 143.96">
  <title>logo_alt</title>
  <path d="M17.45,15.8V33.6c9.18-14.46,19.46-20.3,34.49-20.3,13.35,0,25.59,6.12,31.43,15.85,3.89,6.4,5.56,15,5.56,28.65v71.49H77.8V57.8c0-12-1.11-18.08-4.17-23.08-3.89-7-12.79-11.13-23.08-11.13-12,0-21.14,5.56-27,15.58C19.11,47,17.45,54.74,17.45,70.32v59H6.32V15.8Z" style="fill:#e84e0f"></path>
  <path d="M132,73.93c.28,11.69,2,18.36,6.12,25.59a43.4,43.4,0,0,0,66.75,11.69c3.9-3.62,6.68-7.24,11.41-15.3l9.45,5.56c-11.68,20.58-28.37,30.88-50.34,30.88-32,0-55.63-25-55.63-59.25s23.64-59.8,55.35-59.8c32,0,53.68,24.2,54.24,60.63Zm84.56-10.57c-4.45-23.92-20.86-39.77-41.73-39.77-21.13,0-38.66,16.69-42,39.77Z" style="fill:#e84e0f"></path>
  <path d="M265.46,73.93c.27,11.69,1.94,18.36,6.11,25.59a44.22,44.22,0,0,0,38.11,22.53,44.66,44.66,0,0,0,28.65-10.84c3.89-3.62,6.68-7.24,11.41-15.3l9.45,5.56c-11.68,20.58-28.37,30.88-50.34,30.88-32,0-55.63-25-55.63-59.25s23.64-59.8,55.35-59.8c32,0,53.68,24.2,54.24,60.63ZM350,63.36c-4.45-23.92-20.86-39.77-41.72-39.77-21.14,0-38.66,16.69-42,39.77Z" style="fill:#e84e0f"></path>
  <path d="M443.68,36.66C439,28,432.56,23.59,424.21,23.59c-10.85,0-19.75,8.34-19.75,18.36,0,8.9,5.29,13.63,22.26,20,14.74,5.57,16.69,6.4,22,10.3,7.23,5.56,11.13,13.9,11.13,24.19,0,20.87-15.58,35.89-37,35.89-19.19,0-33.1-10.85-38.94-30L394.73,99c5.29,15.3,14.74,23.08,28.09,23.08,14.47,0,25.59-11.12,25.59-25.31,0-11.4-5.28-17-22-23.08-24.76-8.91-33.38-17-33.38-31.16,0-16.13,13.63-29.2,30.6-29.2,12.79,0,23.08,6.4,29.48,18.36Z" style="fill:#e84e0f"></path>
  <path d="M1478,22.67v-12H1417.3V132.21H1478v-12h-48.22V71.94H1477V60h-47.18V22.67Z" style="fill:#575756"></path>
  <path d="M1602.49,71.31v12h40.76c-.48,7.92-1.83,12.85-4.73,17.5C1631,113.07,1614,122,1598,122c-27.06,0-49.92-22.86-49.92-49.91,0-27.53,23-50.79,50.26-50.79a51,51,0,0,1,31.93,11.81,74.72,74.72,0,0,1,10.81,12l1.52,2,10.14-7.82-1.61-2c-5.87-7.25-9.34-11.15-14.38-15.07A61.25,61.25,0,0,0,1598.7,9.11c-34.9,0-63.29,28.16-63.29,62.77a61.51,61.51,0,0,0,18.49,43.91,62.55,62.55,0,0,0,44.28,18.35c21.17,0,41.91-11.32,51.61-28.16,5.15-8.83,6.8-16.65,6.8-32.17v-2.5Z" style="fill:#575756"></path>
  <path d="M1792.88.09l-52.35,111L1688.69,0l-14.38,132.21H1687s7.83-72.37,9.41-87l44.07,94.56s38.12-81.16,44.46-94.67c1.62,14.45,9.75,87.07,9.75,87.07h12.71Z" style="fill:#575756"></path>
  <path d="M1894.81,72.2a29,29,0,0,0-9.57-5.28c7.47-6,10.52-12.82,10.52-23.16,0-9.13-3-17.2-8.51-23.35-6.18-6.73-14.23-9.73-26.14-9.73h-27.66V132.21h34.12c11,0,19.28-2.62,26.21-8.24a34.13,34.13,0,0,0,12.63-26.58C1906.41,87.39,1902.08,78,1894.81,72.2ZM1846,75.43h15.67c9.58,0,15.81.93,20.85,3.12,6.73,2.9,11.25,10.47,11.25,18.84a21.61,21.61,0,0,1-7.21,16.49c-5.59,5.1-10.2,6.35-23.49,6.35H1846Zm30.22-16.35c-4.34,3.56-7.67,4.36-17.86,4.36H1846V22.67h12.36c8.72,0,13.57,1.19,17.9,4.4s6.67,9.35,6.67,16.51S1880.89,55.43,1876.18,59.08Z" style="fill:#575756"></path>
  <path d="M2010.17,10.68V60.12h-65.76V10.68H1931.9V132.21h12.51V72.11h65.76v60.1h12.51V10.68Z" style="fill:#575756"></path>
  <path d="M529.11,10.68V132.21h12.51V10.68Z" style="fill:#575756"></path>
  <path d="M574.18,132.21h12.51V36.54l97.84,102.38V10.68H672V108.1L574.18,5.72Z" style="fill:#575756"></path>
  <path d="M773.25,9.11c-34.91,0-63.3,28.16-63.3,62.77a61.55,61.55,0,0,0,18.49,43.91,62.57,62.57,0,0,0,44.28,18.35c21.17,0,41.91-11.32,51.61-28.16,5.15-8.82,6.8-16.64,6.8-32.17v-2.5H777v12h40.75c-.48,7.92-1.83,12.85-4.73,17.5-7.47,12.28-24.5,21.18-40.51,21.18-27.06,0-49.91-22.86-49.91-49.91,0-27.53,23-50.79,50.26-50.79a51,51,0,0,1,31.93,11.81,75.22,75.22,0,0,1,10.8,12l1.52,2,10.14-7.82-1.61-2c-5.87-7.26-9.34-11.16-14.38-15.08A61.25,61.25,0,0,0,773.25,9.11Z" style="fill:#575756"></path>
  <path d="M856.54,10.68V132.21h60.74v-12H869.06V71.94h47.17V60H869.06V22.67h48.22v-12Z" style="fill:#575756"></path>
  <path d="M945,132.21h12.51V36.54l97.84,102.38V10.68h-12.51V108.1L945,5.72Z" style="fill:#575756"></path>
  <path d="M1087.91,10.68V132.21h12.51V10.68Z" style="fill:#575756"></path>
  <path d="M1192.72,10.68H1132V132.21h60.74v-12H1144.5V71.94h47.17V60H1144.5V22.67h48.22" style="fill:#575756"></path>
  <path d="M1286.55,10.68V86c0,14-.81,19.07-3.78,23.61-4.61,7.14-15.48,12.32-25.87,12.32s-21.08-5.18-25.67-12.3c-3-4.55-3.8-9.63-3.8-23.63V10.68h-12.51V88.13c0,15.54,1.41,21.79,6.58,29.05,7.46,10.46,21,17,35.4,17s28.12-6.5,35.58-16.95c5.23-7.09,6.58-13.07,6.58-29.06V10.68Z" style="fill:#575756"></path>
  <path d="M1358.08,76.86c7.12-.62,11.16-1.67,15.16-3.82,10.17-5.57,16-16.11,16-28.94,0-11.68-4.54-21.28-12.77-27-6.52-4.65-13.6-6.39-26.07-6.39h-18.92V132.21H1344V77.66L1381,132.21h15.35ZM1344,65.19V22.67h7.11c7.34,0,12.56,1,16.42,3.17,5.58,3.1,9,10,9,18.09,0,13.71-8.48,21.26-23.88,21.26Z" style="fill:#575756"></path>
</svg>
